<svg width="20" height="31" viewBox="0 0 20 31" fill="none" xmlns="http://www.w3.org/2000/svg">
<path d="M0.911587 17.5112L15.5674 30.3334C17.2945 31.8466 20 30.6168 20 28.3202L20 2.67582C20.0004 2.16185 19.8527 1.65864 19.5745 1.22647C19.2964 0.794294 18.8995 0.451466 18.4315 0.239039C17.9635 0.0266122 17.4442 -0.0464081 16.9358 0.0287225C16.4273 0.103853 15.9513 0.32395 15.5648 0.662655L0.914262 13.4848C0.627108 13.7358 0.396961 14.0453 0.239271 14.3925C0.0815808 14.7397 -2.64308e-06 15.1166 -2.70976e-06 15.498C-2.77644e-06 15.8794 0.0815805 16.2563 0.23927 16.6035C0.39696 16.9508 0.627108 17.2602 0.914261 17.5112L0.911587 17.5112Z" fill="white"/>
</svg>
