<svg width="20" height="31" viewBox="0 0 20 31" fill="none" xmlns="http://www.w3.org/2000/svg">
<path d="M19.0884 13.4888L4.43258 0.666642C2.70553 -0.846569 2.6766e-06 0.383249 2.47583e-06 2.6798L2.33927e-07 28.3242C-0.000440409 28.8382 0.147274 29.3414 0.425455 29.7735C0.703634 30.2057 1.10049 30.5485 1.56849 30.761C2.0365 30.9734 2.55581 31.0464 3.06425 30.9713C3.57268 30.8961 4.04868 30.6761 4.43525 30.3373L19.0857 17.5152C19.3729 17.2642 19.603 16.9547 19.7607 16.6075C19.9184 16.2603 20 15.8834 20 15.502C20 15.1206 19.9184 14.7437 19.7607 14.3965C19.603 14.0492 19.3729 13.7398 19.0857 13.4888L19.0884 13.4888Z" fill="white"/>
</svg>
