<svg width="33" height="27" viewBox="0 0 33 27" fill="none" xmlns="http://www.w3.org/2000/svg">
<path d="M27.8704 0.860814C28.4407 0.302579 29.1995 -0.00603612 29.9869 8.94741e-05C30.7742 0.00621507 31.5284 0.326603 32.0904 0.893647C32.6524 1.46069 32.9781 2.23004 32.9989 3.03935C33.0197 3.84866 32.734 4.63464 32.2019 5.23143L16.0498 26.0022C15.772 26.3098 15.4368 26.5567 15.0642 26.728C14.6915 26.8994 14.2891 26.9917 13.881 26.9995C13.4728 27.0072 13.0674 26.9303 12.6888 26.7733C12.3103 26.6162 11.9664 26.3823 11.6778 26.0855L0.96633 15.0715C0.668034 14.7857 0.428779 14.4411 0.262837 14.0581C0.0968948 13.6752 0.00766521 13.2618 0.0004725 12.8426C-0.00672021 12.4235 0.0682715 12.0071 0.220972 11.6184C0.373673 11.2296 0.600955 10.8765 0.88926 10.5801C1.17756 10.2836 1.52099 10.0499 1.89904 9.8929C2.27709 9.73589 2.68202 9.65878 3.08968 9.66617C3.49734 9.67357 3.89938 9.76532 4.27181 9.93595C4.64424 10.1066 4.97942 10.3526 5.25738 10.6593L13.7342 19.3714L27.7935 0.95239C27.8188 0.920343 27.8418 0.889769 27.8704 0.860814Z" fill="#676767"/>
</svg>
